<svg width="28" height="28" viewBox="0 0 28 28" fill="none" xmlns="http://www.w3.org/2000/svg">
<path d="M17.7549 16.2549H16.9649L16.6849 15.9849C17.6649 14.8449 18.2549 13.3649 18.2549 11.7549C18.2549 8.16488 15.3449 5.25488 11.7549 5.25488C8.16488 5.25488 5.25488 8.16488 5.25488 11.7549C5.25488 15.3449 8.16488 18.2549 11.7549 18.2549C13.3649 18.2549 14.8449 17.6649 15.9849 16.6849L16.2549 16.9649V17.7549L21.2549 22.7449L22.7449 21.2549L17.7549 16.2549ZM11.7549 16.2549C9.26488 16.2549 7.25488 14.2449 7.25488 11.7549C7.25488 9.26488 9.26488 7.25488 11.7549 7.25488C14.2449 7.25488 16.2549 9.26488 16.2549 11.7549C16.2549 14.2449 14.2449 16.2549 11.7549 16.2549Z" fill="black"/>
</svg>
